<svg id="visual" viewBox="0 0 900 900" width="900" height="900" xmlns="http://www.w3.org/2000/svg" xmlns:xlink="http://www.w3.org/1999/xlink" version="1.1"><rect width="900" height="900" fill="#0D1B2A"></rect><g><g transform="translate(765 228)"><path d="M59.1 -20C67.6 7.1 59.4 38.8 38.7 54C18 69.2 -15.1 67.8 -38.4 51.3C-61.6 34.8 -74.9 3.1 -66.8 -23.4C-58.7 -49.8 -29.4 -71 -2.1 -70.3C25.3 -69.6 50.5 -47.1 59.1 -20Z" stroke="#60495A" fill="none" stroke-width="20"></path></g><g transform="translate(384 688)"><path d="M36 -10.7C42 6.7 38.9 28 26.4 37.2C14 46.5 -7.8 43.6 -22.9 32.5C-37.9 21.3 -46.1 1.8 -41.2 -14.2C-36.2 -30.2 -18.1 -42.7 -1.6 -42.2C15 -41.7 30 -28.2 36 -10.7Z" stroke="#60495A" fill="none" stroke-width="20"></path></g><g transform="translate(517 400)"><path d="M54.9 -21.2C61.3 1.9 49.9 27.4 30.6 41.2C11.3 55 -15.8 57.1 -35.9 43.8C-56 30.5 -69.1 1.9 -61.9 -22.2C-54.7 -46.4 -27.4 -66.1 -1.6 -65.6C24.2 -65.1 48.4 -44.3 54.9 -21.2Z" stroke="#60495A" fill="none" stroke-width="20"></path></g><g transform="translate(220 562)"><path d="M28 -7.9C32.5 4.9 29.9 21.2 20.3 28.1C10.8 35.1 -5.6 32.7 -16.9 24.3C-28.1 15.8 -34.2 1.4 -30.6 -10.2C-26.9 -21.7 -13.5 -30.3 -0.9 -30C11.7 -29.7 23.5 -20.6 28 -7.9Z" stroke="#60495A" fill="none" stroke-width="20"></path></g><g transform="translate(189 241)"><path d="M53 -15.3C59.9 3.9 50.5 30.3 32 43.6C13.5 56.9 -14.1 57.2 -32.8 44C-51.5 30.7 -61.2 3.8 -54.3 -15.5C-47.3 -34.8 -23.6 -46.6 -0.3 -46.5C23.1 -46.4 46.2 -34.5 53 -15.3Z" stroke="#60495A" fill="none" stroke-width="20"></path></g><g transform="translate(738 610)"><path d="M41.8 -13.6C47.8 4.9 41.9 27.3 26.4 39.2C10.9 51.2 -14.3 52.7 -31 41C-47.8 29.2 -56.1 4.2 -49.5 -15.2C-42.9 -34.5 -21.5 -48.1 -1.8 -47.5C17.9 -46.9 35.8 -32.2 41.8 -13.6Z" stroke="#60495A" fill="none" stroke-width="20"></path></g><g transform="translate(490 101)"><path d="M31.9 -11.2C35.7 1.3 29.2 16.2 18 24.2C6.8 32.2 -9 33.2 -18.8 26C-28.7 18.8 -32.5 3.5 -28.4 -9.5C-24.3 -22.5 -12.1 -33.1 1 -33.4C14.1 -33.7 28.1 -23.7 31.9 -11.2Z" stroke="#60495A" fill="none" stroke-width="20"></path></g><g transform="translate(162 759)"><path d="M35.1 -11.6C39.8 2.8 33.8 20.6 21.2 29.9C8.5 39.2 -10.7 40.2 -23.9 31.1C-37.1 21.9 -44.1 2.6 -39.2 -12.3C-34.2 -27.2 -17.1 -37.8 -0.9 -37.5C15.2 -37.2 30.5 -26 35.1 -11.6Z" stroke="#60495A" fill="none" stroke-width="20"></path></g></g></svg>