<svg id="visual" viewBox="0 0 900 900" width="900" height="900" xmlns="http://www.w3.org/2000/svg" xmlns:xlink="http://www.w3.org/1999/xlink" version="1.1"><rect width="900" height="900" fill="#0D1B2A"></rect><g><g transform="translate(481 344)"><path d="M63.6 -20.8C71.9 4.9 60.9 36.8 38 53.7C15.1 70.7 -19.6 72.8 -43 56.5C-66.4 40.1 -78.3 5.4 -69.3 -21.3C-60.2 -48 -30.1 -66.7 -1.2 -66.3C27.6 -65.9 55.2 -46.4 63.6 -20.8Z" stroke="#60495A" fill="none" stroke-width="20"></path></g><g transform="translate(521 599)"><path d="M55.5 -16.7C63.9 7.8 57.1 38.5 36.5 54.4C15.9 70.4 -18.5 71.6 -38.7 56.3C-58.9 40.9 -64.9 8.9 -56.1 -16.2C-47.3 -41.2 -23.6 -59.4 0 -59.4C23.6 -59.4 47.1 -41.2 55.5 -16.7Z" stroke="#60495A" fill="none" stroke-width="20"></path></g><g transform="translate(198 217)"><path d="M51.4 -15C58.7 5.7 51.2 33 34.2 44.8C17.2 56.6 -9.3 53 -27.2 39.5C-45 26 -54.2 2.7 -48.2 -16.3C-42.3 -35.2 -21.1 -49.8 0.5 -50C22.1 -50.2 44.1 -35.8 51.4 -15Z" stroke="#60495A" fill="none" stroke-width="20"></path></g><g transform="translate(282 494)"><path d="M54.2 -17.9C62.4 7.4 55.6 37.3 37.3 50.4C19 63.5 -10.8 59.7 -30.1 44.9C-49.4 30.1 -58.2 4.1 -51.4 -19.3C-44.6 -42.8 -22.3 -63.9 0.4 -64C23 -64.2 46.1 -43.3 54.2 -17.9Z" stroke="#60495A" fill="none" stroke-width="20"></path></g><g transform="translate(647 183)"><path d="M62.8 -20C70.8 4.4 59.6 35.5 37.6 51.4C15.6 67.3 -17.1 68 -37.8 52.8C-58.5 37.6 -67.2 6.5 -58.8 -18.3C-50.5 -43 -25.3 -61.5 1 -61.8C27.3 -62.1 54.7 -44.4 62.8 -20Z" stroke="#60495A" fill="none" stroke-width="20"></path></g><g transform="translate(114 715)"><path d="M46.6 -14.3C53.9 7.3 48.9 33.8 32.2 46.3C15.6 58.9 -12.5 57.4 -29.2 44.3C-45.9 31.2 -51.2 6.4 -44.4 -14.5C-37.6 -35.4 -18.8 -52.4 0.4 -52.6C19.7 -52.7 39.3 -35.9 46.6 -14.3Z" stroke="#60495A" fill="none" stroke-width="20"></path></g><g transform="translate(776 479)"><path d="M44.4 -14.4C49.9 2.5 41.5 24 26.3 34.6C11.2 45.2 -10.7 45 -26.9 33.9C-43.2 22.8 -54 0.9 -48.6 -15.9C-43.1 -32.7 -21.6 -44.5 -1.1 -44.1C19.4 -43.8 38.9 -31.4 44.4 -14.4Z" stroke="#60495A" fill="none" stroke-width="20"></path></g><g transform="translate(365 767)"><path d="M56.8 -18.9C64.9 6.2 56.5 36.3 35.1 52.9C13.7 69.6 -20.8 72.8 -41.5 57.6C-62.2 42.5 -69.2 8.9 -60 -17.9C-50.7 -44.6 -25.4 -64.5 -0.5 -64.4C24.4 -64.2 48.8 -44 56.8 -18.9Z" stroke="#60495A" fill="none" stroke-width="20"></path></g><g transform="translate(702 747)"><path d="M62.9 -21.8C71.8 6.8 62.5 40 40 56.7C17.6 73.4 -18.1 73.7 -42.9 56.3C-67.6 38.9 -81.6 3.9 -72.7 -24.8C-63.7 -53.6 -31.9 -76.1 -2.4 -75.3C27 -74.5 54.1 -50.4 62.9 -21.8Z" stroke="#60495A" fill="none" stroke-width="20"></path></g></g></svg>